<?xml version="1.0" encoding="UTF-8"?>
<svg id="Livello_1" xmlns="http://www.w3.org/2000/svg" version="1.1" viewBox="0 0 477.98 96">
  <!-- Generator: Adobe Illustrator 29.8.2, SVG Export Plug-In . SVG Version: 2.1.1 Build 3)  -->
  <defs>
    <style>
      .st0 {
        fill: #fd7a6e;
      }

      .st1 {
        fill: #8ce09f;
      }

      .st2 {
        fill: #fff8e6;
      }

      .st3 {
        fill: #c2eafb;
      }

      .st4 {
        fill: #ffeab7;
      }

      .st5 {
        fill: #fff;
      }

      .st6 {
        fill: #55d47b;
      }

      .st7 {
        fill: #97a4b2;
      }

      .st8 {
        fill: #91d4f2;
      }

      .st9 {
        fill: #77899b;
      }
    </style>
  </defs>
  <g>
    <path d="M97.27,63.72c-2.02,0-3.85-.24-5.48-.73-1.63-.48-3.07-1.19-4.33-2.11s-2.39-2.02-3.39-3.28l4.53-5.15c1.47,1.96,2.94,3.28,4.42,3.96,1.48.67,3.01,1.01,4.6,1.01.79,0,1.51-.1,2.16-.31.64-.2,1.14-.51,1.5-.9.35-.4.53-.89.53-1.47,0-.44-.11-.84-.33-1.19-.22-.35-.52-.66-.9-.92-.38-.26-.84-.51-1.36-.73-.53-.22-1.08-.41-1.67-.57s-1.19-.3-1.8-.42c-1.7-.38-3.18-.85-4.44-1.41-1.26-.56-2.31-1.24-3.14-2.05-.84-.81-1.46-1.73-1.87-2.77-.41-1.04-.62-2.21-.62-3.5,0-1.38.32-2.65.95-3.8.63-1.16,1.48-2.16,2.55-2.99,1.07-.84,2.31-1.48,3.72-1.94,1.41-.45,2.87-.68,4.4-.68,2.02,0,3.76.21,5.21.64,1.45.43,2.7,1.03,3.74,1.83,1.04.79,1.93,1.74,2.66,2.86l-4.62,4.44c-.62-.76-1.28-1.39-2-1.89-.72-.5-1.48-.88-2.29-1.14-.81-.26-1.63-.4-2.49-.4s-1.63.11-2.26.33c-.63.22-1.12.53-1.47.92-.35.4-.53.87-.53,1.43,0,.5.15.92.44,1.28.29.35.69.67,1.19.95.5.28,1.07.51,1.71.7.64.19,1.32.35,2.02.46,1.61.32,3.07.75,4.38,1.28,1.3.53,2.43,1.17,3.39,1.94.95.76,1.69,1.66,2.2,2.71.51,1.04.77,2.25.77,3.63,0,2.14-.52,3.95-1.56,5.43s-2.46,2.61-4.27,3.39c-1.8.78-3.88,1.17-6.22,1.17Z"/>
    <path d="M112.18,63.28v-23.36h6.69l.22,4.22-.92.04c.35-.76.8-1.44,1.34-2.02.54-.59,1.16-1.08,1.85-1.47.69-.4,1.41-.7,2.16-.9.75-.21,1.5-.31,2.26-.31,1.14,0,2.18.18,3.12.53.94.35,1.76.92,2.46,1.69.7.78,1.26,1.83,1.67,3.15l-1.1-.09.35-.7c.38-.7.87-1.34,1.47-1.91.6-.57,1.27-1.06,2-1.45.73-.4,1.5-.7,2.29-.9.79-.21,1.55-.31,2.29-.31,1.85,0,3.39.36,4.62,1.08,1.23.72,2.16,1.8,2.79,3.23.63,1.44.95,3.18.95,5.23v14.25h-7.08v-13.68c0-.94-.13-1.72-.4-2.33-.26-.62-.65-1.08-1.17-1.39-.51-.31-1.15-.46-1.91-.46-.62,0-1.18.1-1.69.31-.51.21-.95.48-1.32.84-.37.35-.65.76-.86,1.23-.21.47-.31,1-.31,1.58v13.9h-7.08v-13.72c0-.88-.13-1.63-.4-2.24-.26-.62-.66-1.08-1.19-1.41-.53-.32-1.14-.48-1.85-.48-.62,0-1.18.1-1.69.31-.51.21-.95.48-1.32.84-.37.35-.65.76-.86,1.23-.21.47-.31.98-.31,1.54v13.94h-7.08Z"/>
    <path d="M161.18,63.68c-1.96,0-3.72-.52-5.26-1.56-1.54-1.04-2.76-2.48-3.67-4.31-.91-1.83-1.36-3.91-1.36-6.22s.46-4.47,1.36-6.29c.91-1.82,2.16-3.25,3.74-4.29,1.58-1.04,3.39-1.56,5.41-1.56,1.11,0,2.13.16,3.06.48.92.32,1.74.77,2.44,1.34.7.57,1.3,1.23,1.8,1.98.5.75.86,1.55,1.1,2.4l-1.45-.18v-5.54h6.99v23.36h-7.13v-5.63l1.58-.04c-.24.82-.62,1.6-1.14,2.33-.53.73-1.17,1.38-1.94,1.94-.76.56-1.61,1-2.55,1.32-.94.32-1.94.48-2.99.48ZM163.12,57.74c1.08,0,2.02-.25,2.81-.75.79-.5,1.41-1.21,1.85-2.13.44-.92.66-2.02.66-3.28s-.22-2.35-.66-3.28c-.44-.92-1.06-1.64-1.85-2.16-.79-.51-1.73-.77-2.81-.77s-1.97.26-2.75.77c-.78.51-1.39,1.23-1.83,2.16-.44.92-.66,2.02-.66,3.28s.22,2.35.66,3.28c.44.92,1.05,1.63,1.83,2.13.78.5,1.69.75,2.75.75Z"/>
    <path d="M179.57,63.28v-23.36h6.69l.31,7.61-1.32-1.45c.35-1.26.93-2.39,1.74-3.39.81-1,1.75-1.79,2.84-2.38,1.08-.59,2.24-.88,3.48-.88.53,0,1.02.04,1.47.13.46.09.87.19,1.25.31l-1.94,7.79c-.32-.2-.75-.37-1.3-.51-.54-.13-1.11-.2-1.69-.2-.64,0-1.25.11-1.8.33-.56.22-1.03.54-1.41.95-.38.41-.68.9-.9,1.45s-.33,1.19-.33,1.89v11.7h-7.08Z"/>
    <path d="M196.28,46.08v-6.16h15.7v6.16h-15.7ZM200.41,63.28v-29.25h7.04v29.25h-7.04Z"/>
    <path d="M226.85,63.28v-30.79h7.48v30.79h-7.48ZM229.75,51.27l.04-6.69h20.1v6.69h-20.15ZM245.94,63.28v-30.79h7.48v30.79h-7.48Z"/>
    <path d="M269.51,63.72c-2.58,0-4.82-.52-6.73-1.56-1.91-1.04-3.39-2.46-4.44-4.27-1.06-1.8-1.58-3.86-1.58-6.18,0-1.79.29-3.43.88-4.93.59-1.5,1.41-2.79,2.46-3.89s2.31-1.95,3.76-2.55c1.45-.6,3.04-.9,4.77-.9s3.15.29,4.51.88c1.36.59,2.54,1.41,3.54,2.46,1,1.06,1.76,2.3,2.29,3.74.53,1.44.76,3.01.7,4.71l-.04,1.89h-18.61l-1.01-3.96h13.9l-.75.84v-.88c-.06-.73-.29-1.39-.68-1.96-.4-.57-.92-1.02-1.56-1.34s-1.38-.48-2.2-.48c-1.14,0-2.12.23-2.92.68-.81.46-1.42,1.11-1.83,1.98-.41.87-.62,1.93-.62,3.19s.27,2.41.81,3.36c.54.95,1.33,1.69,2.38,2.22,1.04.53,2.28.79,3.72.79,1,0,1.88-.15,2.66-.44.78-.29,1.62-.79,2.53-1.5l3.3,4.66c-.91.79-1.88,1.44-2.9,1.94-1.03.5-2.08.87-3.14,1.12-1.07.25-2.13.37-3.19.37Z"/>
    <path d="M282.18,63.28v-23.36h6.69l.31,7.61-1.32-1.45c.35-1.26.93-2.39,1.74-3.39.81-1,1.75-1.79,2.84-2.38,1.08-.59,2.24-.88,3.48-.88.53,0,1.02.04,1.47.13.46.09.87.19,1.25.31l-1.94,7.79c-.32-.2-.75-.37-1.3-.51-.54-.13-1.11-.2-1.69-.2-.64,0-1.25.11-1.8.33-.56.22-1.03.54-1.41.95-.38.41-.68.9-.9,1.45s-.33,1.19-.33,1.89v11.7h-7.08Z"/>
    <path d="M304.13,35.31c-1.32,0-2.35-.31-3.1-.95-.75-.63-1.12-1.53-1.12-2.71,0-1.06.38-1.92,1.14-2.6.76-.67,1.79-1.01,3.08-1.01s2.35.32,3.08.95c.73.63,1.1,1.52,1.1,2.66s-.37,1.96-1.12,2.64c-.75.67-1.77,1.01-3.06,1.01ZM300.61,63.28v-23.36h7.04v23.36h-7.04Z"/>
    <path d="M310.07,46.08v-6.16h15.7v6.16h-15.7ZM314.2,63.28v-29.25h7.04v29.25h-7.04Z"/>
    <path d="M336.19,63.68c-1.96,0-3.72-.52-5.26-1.56-1.54-1.04-2.76-2.48-3.67-4.31-.91-1.83-1.36-3.91-1.36-6.22s.46-4.47,1.36-6.29c.91-1.82,2.16-3.25,3.74-4.29,1.58-1.04,3.39-1.56,5.41-1.56,1.11,0,2.13.16,3.06.48.92.32,1.74.77,2.44,1.34.7.57,1.3,1.23,1.8,1.98.5.75.86,1.55,1.1,2.4l-1.45-.18v-5.54h6.99v23.36h-7.13v-5.63l1.58-.04c-.24.82-.62,1.6-1.14,2.33-.53.73-1.17,1.38-1.94,1.94-.76.56-1.61,1-2.55,1.32-.94.32-1.94.48-2.99.48ZM338.13,57.74c1.08,0,2.02-.25,2.81-.75.79-.5,1.41-1.21,1.85-2.13.44-.92.66-2.02.66-3.28s-.22-2.35-.66-3.28c-.44-.92-1.06-1.64-1.85-2.16-.79-.51-1.73-.77-2.81-.77s-1.97.26-2.75.77c-.78.51-1.39,1.23-1.83,2.16-.44.92-.66,2.02-.66,3.28s.22,2.35.66,3.28c.44.92,1.05,1.63,1.83,2.13.78.5,1.69.75,2.75.75Z"/>
    <path d="M365.27,73.4c-1.91,0-3.8-.28-5.7-.83-1.89-.56-3.42-1.28-4.6-2.16l2.46-4.93c.62.41,1.3.77,2.04,1.08.75.31,1.53.55,2.35.73.82.18,1.66.26,2.51.26,1.5,0,2.71-.22,3.65-.66.94-.44,1.64-1.11,2.11-2,.47-.89.7-2.02.7-3.37v-3.91l1.36.22c-.21.97-.71,1.85-1.52,2.64-.81.79-1.8,1.43-2.97,1.91-1.17.48-2.42.73-3.74.73-2.11,0-4-.49-5.65-1.47-1.66-.98-2.96-2.35-3.92-4.09-.95-1.74-1.43-3.76-1.43-6.05s.47-4.42,1.41-6.22c.94-1.8,2.23-3.23,3.87-4.27,1.64-1.04,3.49-1.56,5.54-1.56.88,0,1.72.1,2.53.31.81.21,1.55.48,2.24.81.69.34,1.3.73,1.85,1.19.54.46.98.95,1.32,1.47s.56,1.07.68,1.63l-1.45.35.26-5.28h6.69v21.46c0,1.91-.29,3.6-.86,5.08-.57,1.48-1.41,2.74-2.51,3.78-1.1,1.04-2.43,1.83-3.98,2.35-1.55.53-3.31.79-5.28.79ZM365.44,57.65c1.14,0,2.13-.26,2.97-.77s1.48-1.22,1.94-2.13c.45-.91.68-1.98.68-3.21s-.23-2.31-.68-3.23c-.46-.92-1.1-1.64-1.94-2.16-.84-.51-1.83-.77-2.97-.77s-2.08.26-2.9.77c-.82.51-1.46,1.23-1.91,2.16-.46.92-.68,2-.68,3.23s.23,2.3.68,3.21c.45.91,1.09,1.62,1.91,2.13.82.51,1.79.77,2.9.77Z"/>
    <path d="M393.15,63.72c-2.58,0-4.82-.52-6.73-1.56-1.91-1.04-3.39-2.46-4.44-4.27-1.06-1.8-1.58-3.86-1.58-6.18,0-1.79.29-3.43.88-4.93.59-1.5,1.41-2.79,2.46-3.89s2.31-1.95,3.76-2.55c1.45-.6,3.04-.9,4.77-.9s3.15.29,4.51.88c1.36.59,2.54,1.41,3.54,2.46,1,1.06,1.76,2.3,2.29,3.74.53,1.44.76,3.01.7,4.71l-.04,1.89h-18.61l-1.01-3.96h13.9l-.75.84v-.88c-.06-.73-.29-1.39-.68-1.96-.4-.57-.92-1.02-1.56-1.34s-1.38-.48-2.2-.48c-1.14,0-2.12.23-2.92.68-.81.46-1.42,1.11-1.83,1.98-.41.87-.62,1.93-.62,3.19s.27,2.41.81,3.36c.54.95,1.33,1.69,2.38,2.22,1.04.53,2.28.79,3.72.79,1,0,1.88-.15,2.66-.44.78-.29,1.62-.79,2.53-1.5l3.3,4.66c-.91.79-1.88,1.44-2.9,1.94-1.03.5-2.08.87-3.14,1.12-1.07.25-2.13.37-3.19.37Z"/>
  </g>
  <g>
    <g>
      <g>
        <path class="st2" d="M74.72,31.34v32.19c0,1.59-1.04,3-2.57,3.46l-10.99,3.32c-12.43-1.48-23.06-12.66-23.06-24.36,0-5.91,3.39-11.65,9.66-15.56l5.27,1.59c.28.08.56.15.84.19,0,0,.6,2.48.9,2.48s.9-2.48.9-2.48c.28-.04.56-.11.84-.19l13.55-4.09c2.32-.7,4.66,1.04,4.66,3.46h0Z"/>
        <path class="st4" d="M61.16,70.31l-4.65,1.4c-.28.08-.56.15-.84.19,0,0-.6-1.09-.9-1.09s-.9,1.09-.9,1.09c-.28-.04-.56-.1-.84-.19l-16.47-4.97c-.28-.08-.56-.15-.84-.19,0,0-.6-1.27-.9-1.27s-.9,1.27-.9,1.27c-.28.04-.56.11-.84.19l-13.55,4.09c-2.32.7-4.66-1.04-4.66-3.46v-32.19c0-1.59,1.04-3,2.57-3.46l15.64-4.72c.28-.08.56-.15.84-.19,0,0,.6,1.14.9,1.14s.9-1.14.9-1.14c.28.04.56.11.84.19l11.2,3.38c-3.41,4.29-5.46,9.71-5.46,15.62,0,8.87,4.61,16.67,11.56,21.13.59.38,1.19.73,1.81,1.05,1.72.91,3.56,1.63,5.49,2.12h0Z"/>
      </g>
      <g>
        <path class="st3" d="M69.91,57.41v4.34c0,.53-.35,1-.86,1.15l-14.28,4.31-1.46-.44c-8.26-4.32-12.82-12.13-12.82-20.76,0-2.97.45-5.9,2.11-8.54.05.08.11.15.17.21,1.42,1.6,16.86,3.44,18.74,4.38,4.09,2.05,8.4,15.35,8.4,15.35h0Z"/>
        <path class="st8" d="M53.31,66.77l-7.42-2.24c-6.19-3.91-23.38-11.03-26.2-16.55v-11.01c0-.53.35-1,.86-1.15l14.28-4.31,6.54,1.97s1.82,2.29,2.6,3.16c.23.26-.47,1.73-.47,1.73-.77,2.41-1.18,4.97-1.18,7.63,0,8.63,4.36,16.25,11,20.76Z"/>
        <path class="st6" d="M45.88,64.53l-11.06-3.34-13.58,4.1c-.77.23-1.55-.35-1.55-1.15v-16.15c1.36-.39,3.88-.83,5.16.84,1.8,2.36,2.63,3.74,4.63,3.46,2-.28,9.34-2.75,10.62,2.01,1.47,5.44,7.53,5.46,5.78,10.23h0Z"/>
        <path class="st1" d="M69.91,34.59v22.82c-.93-.15-1.93-.47-2.93-1.03-3.47-1.96-2.23-10.11-6.32-12.16-1.88-.94-5.7,2.1-8.46,2.19s-4.99-1.42-5.52-4.09c-.45-2.23-1.9-2.85-3.19-3.94-.21-1.46.08-2.78,1.56-3.78l9.73,2.93,13.58-4.1c.77-.23,1.55.35,1.55,1.15h0Z"/>
        <path class="st6" d="M45.05,34.6c-.62,1.21-1.14,2.47-1.56,3.78-.25-.21-.5-.44-.73-.7-.77-.87-1.19-2.7-1.41-4.2l3.69,1.11Z"/>
        <g>
          <path class="st0" d="M25.23,57.49s-.09,0-.14-.01c-.49-.08-.83-.54-.75-1.03,0-.01.04-.25.13-.65.11-.49.59-.79,1.08-.69.49.11.79.59.69,1.08-.07.33-.11.53-.11.54-.07.44-.45.76-.89.76h0Z"/>
          <path class="st0" d="M52.46,54.83c-.08,0-.16-.01-.24-.03-.38-.11-.77-.24-1.19-.42-.36-.15-.72-.31-1.12-.51h0c-.22-.11-.38-.29-.45-.52-.08-.23-.06-.47.05-.69.16-.31.46-.5.81-.5.14,0,.28.03.4.1.34.17.66.32.97.45,0,0,.01,0,.02,0,.35.14.68.26,1,.35.48.13.76.63.63,1.11-.11.39-.47.66-.87.66h0Z"/>
          <path class="st0" d="M55.85,54.67c-.36,0-.68-.21-.83-.54-.2-.46,0-.99.46-1.19.3-.13.6-.29.87-.48,0,0,0,0,.01,0,.27-.18.52-.39.76-.62.17-.16.39-.25.63-.25s.48.1.65.27c.35.36.34.93-.02,1.28-.32.31-.66.59-1.02.83-.36.24-.75.46-1.15.63-.12.05-.24.08-.36.08h0Z"/>
          <path class="st0" d="M27.94,49.86c-.14-.09-.3-.13-.47-.13-.32,0-.61.16-.77.43-.21.34-.41.7-.6,1.07-.18.36-.36.73-.52,1.11-.2.46.02.99.48,1.18.11.05.23.07.36.07.36,0,.69-.22.83-.55h0c.15-.34.3-.68.46-.99.17-.33.35-.65.53-.95.26-.43.12-.98-.3-1.24Z"/>
          <path class="st0" d="M47.31,52.2c-.17,0-.34-.05-.49-.15-.31-.2-.63-.41-.98-.65-.29-.2-.61-.41-.96-.65-.41-.28-.52-.84-.24-1.25.17-.25.45-.39.75-.39.18,0,.36.05.51.16.26.18.61.42.96.65,0,0,.01,0,.02.01.33.23.64.43.94.62.42.27.53.83.26,1.25-.17.26-.45.41-.76.41h0Z"/>
          <path class="st0" d="M59.63,50.49c-.12,0-.23-.02-.34-.07-.46-.19-.69-.71-.5-1.18.13-.32.25-.66.35-1.01.1-.34.19-.69.26-1.05.09-.42.46-.72.88-.72.06,0,.12,0,.18.02.24.05.44.19.57.39.13.2.18.44.13.68-.09.41-.19.81-.3,1.2-.12.41-.26.8-.41,1.18-.14.34-.47.57-.84.57h0Z"/>
          <path class="st0" d="M42.49,48.98c-.17,0-.34-.05-.48-.14-.34-.22-.66-.41-.96-.59-.35-.2-.67-.38-.97-.54,0,0,0,0,0,0-.44-.23-.62-.77-.39-1.22.16-.3.46-.49.8-.49.14,0,.28.03.41.1.33.17.69.37,1.06.59.32.19.65.39,1.02.62.42.27.55.82.28,1.25-.17.26-.45.42-.76.42Z"/>
          <path class="st0" d="M29.67,48.85c-.26,0-.5-.11-.68-.3-.33-.37-.3-.94.07-1.28.32-.28.65-.55,1-.79.35-.24.72-.46,1.1-.65.13-.06.27-.1.41-.1.34,0,.65.19.8.49.23.44.05.99-.39,1.21-.3.15-.6.33-.89.53-.28.19-.56.41-.82.65-.16.15-.38.23-.6.23h0Z"/>
          <path class="st0" d="M37.21,46.73s-.09,0-.13,0c-.36-.05-.72-.08-1.06-.1-.37-.01-.72,0-1.05.01-.02,0-.04,0-.07,0-.47,0-.87-.37-.9-.84-.04-.5.34-.93.84-.97.41-.03.84-.03,1.26-.02.4.02.82.06,1.24.11.49.07.84.53.77,1.02-.06.44-.45.78-.89.78h0Z"/>
          <path class="st0" d="M61.55,42.72s0,0,0,0c-.02-.4-.04-.64-.04-.65-.05-.5-.49-.86-.99-.81-.5.05-.86.49-.81.99,0,0,.02.2.03.54,0,0,0,0,0,0,.01.26.02.52.02.78,0,.12,0,.22,0,.32,0,.24.09.47.25.64.17.17.39.27.63.27h.01c.24,0,.46-.09.63-.26.17-.17.27-.39.27-.63,0-.11,0-.22,0-.35,0-.29,0-.57-.02-.85h0Z"/>
        </g>
        <path class="st6" d="M27.28,38.55c.86-.54,2.41-.11,2.16,1.43-.27,1.64.96,1.17.88,2.48-.06.98-2.94,1.34-3.96-.13-.82-1.18-.41-2.95.91-3.78h0Z"/>
      </g>
      <path class="st9" d="M35.72,26.82v14.36c0,.5-.4.9-.9.9s-.9-.4-.9-.9v-14.36c.6-.09,1.21-.09,1.81,0Z"/>
      <path class="st9" d="M35.72,49.97v16.52s0,.04,0,.07c-.6-.09-1.2-.09-1.8,0,0-.02,0-.04,0-.07v-16.52c0-.5.4-.9.9-.9s.9.4.9.9h0Z"/>
      <g>
        <path class="st7" d="M55.67,32.23v17.22c0,.5-.4.9-.9.9s-.9-.4-.9-.9v-17.22s0-.04,0-.07c.6.09,1.2.09,1.8,0,0,.02,0,.04,0,.07h0Z"/>
        <path class="st7" d="M55.67,58.12v13.78c-.6.09-1.21.09-1.81,0v-13.78c0-.5.4-.9.9-.9s.9.4.9.9h0Z"/>
      </g>
    </g>
    <g>
      <path class="st0" d="M61.67,12.12c-5.14-.07-9.22,4.28-9.07,9.42.2,6.82,4.77,12.06,7.3,14.45.93.88,2.38.88,3.3,0,2.59-2.44,7.31-7.86,7.31-14.91,0-4.9-3.95-8.89-8.84-8.96Z"/>
      <circle class="st5" cx="61.55" cy="21.08" r="4.82"/>
    </g>
  </g>
  <g>
    <path d="M418.37,42.38v7.94h-.72v-7.94h.72Z"/>
    <path d="M422.19,44.37v.6h-2.84v-.6h2.84ZM420.24,42.94h.69v5.82c0,.25.04.44.13.58.09.14.2.24.33.3.14.06.28.09.44.09.09,0,.17,0,.23-.02s.12-.02.17-.04l.15.62c-.07.03-.15.05-.25.07-.1.02-.22.03-.36.03-.25,0-.5-.06-.73-.17-.23-.11-.43-.28-.58-.5-.15-.22-.22-.49-.22-.82v-5.99Z"/>
    <path d="M423.63,43.34c-.14,0-.26-.05-.36-.15-.1-.1-.15-.21-.15-.35s.05-.25.15-.35c.1-.1.22-.15.36-.15s.26.05.36.15c.1.1.15.21.15.35s-.05.25-.15.35c-.1.1-.22.15-.36.15ZM423.27,50.32v-5.95h.69v5.95h-.69Z"/>
    <path d="M425.99,46.6v3.72h-.69v-5.95h.67v.93h.06c.14-.3.36-.55.65-.73s.66-.28,1.1-.28c.4,0,.75.08,1.06.25.3.17.54.41.71.73.17.32.25.72.25,1.19v3.86h-.69v-3.81c0-.49-.14-.87-.41-1.16s-.64-.43-1.09-.43c-.31,0-.59.07-.83.2-.24.13-.43.33-.58.58s-.21.55-.21.9Z"/>
    <path d="M433.54,50.44c-.56,0-1.04-.13-1.44-.39-.41-.26-.72-.62-.94-1.08s-.33-.99-.33-1.59.11-1.13.33-1.6.53-.83.92-1.1c.39-.26.84-.4,1.36-.4.32,0,.63.06.93.18.3.12.57.3.81.54.24.24.43.54.57.91.14.37.21.8.21,1.3v.34h-4.65v-.61h3.95c0-.38-.08-.73-.23-1.03-.15-.31-.37-.55-.64-.73s-.59-.27-.94-.27c-.38,0-.71.1-1,.3-.29.2-.51.47-.67.8-.16.33-.24.69-.25,1.08v.36c0,.47.08.89.25,1.24s.4.63.7.82c.3.19.66.29,1.07.29.28,0,.53-.04.74-.13.21-.09.39-.21.54-.35.15-.15.26-.31.33-.49l.66.21c-.09.25-.24.48-.44.69-.21.21-.46.38-.77.51-.31.13-.66.19-1.06.19Z"/>
    <path d="M436.98,50.32v-5.95h.67v.91h.05c.12-.3.33-.54.62-.73s.63-.28,1.01-.28c.06,0,.12,0,.19,0,.07,0,.13,0,.17,0v.7s-.08-.01-.16-.02c-.08-.01-.16-.02-.25-.02-.31,0-.59.06-.83.2-.24.13-.43.31-.57.54-.14.23-.21.49-.21.79v3.84h-.69Z"/>
    <path d="M442.04,50.46c-.36,0-.69-.07-.98-.21-.3-.14-.53-.35-.71-.61-.18-.27-.26-.59-.26-.98,0-.29.06-.54.17-.74.11-.2.27-.37.47-.5.2-.13.45-.23.72-.31.28-.07.59-.13.92-.17.33-.04.62-.08.85-.11.23-.03.41-.08.53-.15.12-.07.18-.18.18-.33v-.14c0-.41-.12-.73-.36-.96-.24-.23-.59-.35-1.04-.35-.43,0-.78.09-1.05.28-.27.19-.46.41-.57.67l-.65-.24c.13-.33.32-.59.56-.78.24-.19.5-.34.8-.42.29-.09.59-.13.9-.13.23,0,.46.03.71.09s.48.16.69.31.38.35.52.61.2.59.2.99v4.04h-.69v-.94h-.04c-.08.18-.21.35-.37.51-.16.17-.37.3-.61.41-.25.11-.53.16-.86.16ZM442.14,49.82c.37,0,.68-.08.95-.24s.48-.38.62-.65.22-.57.22-.89v-.86c-.05.05-.14.09-.26.13-.12.04-.26.07-.41.1s-.31.05-.47.08c-.16.02-.29.04-.42.05-.34.04-.62.11-.86.19-.24.09-.42.21-.55.36-.13.15-.19.35-.19.59,0,.36.13.64.39.84.26.2.58.3.97.3Z"/>
    <path d="M445.96,50.32v-5.95h.67v.91h.05c.12-.3.33-.54.62-.73s.63-.28,1.01-.28c.06,0,.12,0,.19,0,.07,0,.13,0,.17,0v.7s-.08-.01-.16-.02c-.08-.01-.16-.02-.25-.02-.31,0-.59.06-.83.2-.24.13-.43.31-.57.54-.14.23-.21.49-.21.79v3.84h-.69Z"/>
    <path d="M450.03,52.55c-.14,0-.27-.01-.38-.04-.12-.03-.21-.05-.28-.08l.19-.61c.24.07.44.1.63.08s.35-.1.49-.25c.14-.15.27-.37.38-.67l.22-.6-2.19-6.01h.75l1.77,5.04h.05l1.77-5.04h.75l-2.52,6.89c-.11.29-.24.53-.39.72-.15.19-.33.34-.54.43-.2.09-.43.14-.68.14Z"/>
    <path d="M419.91,60.45c-.56,0-1.04-.13-1.44-.39-.41-.26-.72-.62-.94-1.08s-.33-.99-.33-1.59.11-1.13.33-1.6c.22-.47.53-.83.92-1.1.39-.26.84-.4,1.36-.4.32,0,.63.06.93.18.3.12.57.3.81.54s.43.54.57.91c.14.37.21.8.21,1.3v.34h-4.65v-.61h3.95c0-.38-.08-.73-.23-1.03-.15-.31-.37-.55-.64-.73-.27-.18-.59-.27-.94-.27-.38,0-.71.1-1,.3-.29.2-.51.47-.67.8-.16.33-.24.69-.25,1.08v.36c0,.47.08.88.25,1.24s.4.63.7.82c.3.19.66.29,1.07.29.28,0,.53-.04.74-.13.21-.09.39-.21.54-.35.15-.15.26-.31.33-.49l.66.21c-.09.25-.24.48-.44.69-.21.21-.46.38-.77.51-.31.13-.66.19-1.06.19Z"/>
    <path d="M423.62,54.37l1.53,2.54,1.54-2.54h.8l-1.91,2.98,1.91,2.98h-.8l-1.54-2.46-1.53,2.46h-.8l1.89-2.98-1.89-2.98h.8Z"/>
    <path d="M428.45,62.55v-8.18h.67v1.14h.08c.08-.18.2-.36.34-.55.15-.19.34-.35.58-.47.24-.13.54-.19.9-.19.49,0,.92.13,1.29.39.37.26.65.62.86,1.08.21.46.31,1,.31,1.61s-.1,1.15-.31,1.62c-.21.46-.49.82-.86,1.08-.37.26-.79.39-1.28.39-.36,0-.66-.06-.9-.19-.24-.13-.44-.29-.59-.48-.15-.19-.26-.38-.34-.56h-.06v3.34h-.69ZM429.13,57.35c0,.48.07.91.21,1.28s.35.66.62.87c.27.21.6.32.98.32s.73-.11,1-.33c.27-.22.48-.51.62-.89.14-.37.22-.79.22-1.25s-.07-.87-.21-1.24c-.14-.37-.35-.66-.62-.87-.27-.22-.61-.32-1.01-.32s-.72.1-.99.31-.48.5-.62.86-.21.79-.21,1.26Z"/>
    <path d="M436.91,60.45c-.56,0-1.04-.13-1.44-.39-.41-.26-.72-.62-.94-1.08s-.33-.99-.33-1.59.11-1.13.33-1.6c.22-.47.53-.83.92-1.1.39-.26.84-.4,1.36-.4.32,0,.63.06.93.18.3.12.57.3.81.54s.43.54.57.91c.14.37.21.8.21,1.3v.34h-4.65v-.61h3.95c0-.38-.08-.73-.23-1.03-.15-.31-.37-.55-.64-.73-.27-.18-.59-.27-.94-.27-.38,0-.71.1-1,.3-.29.2-.51.47-.67.8-.16.33-.24.69-.25,1.08v.36c0,.47.08.88.25,1.24s.4.63.7.82c.3.19.66.29,1.07.29.28,0,.53-.04.74-.13.21-.09.39-.21.54-.35.15-.15.26-.31.33-.49l.66.21c-.09.25-.24.48-.44.69-.21.21-.46.38-.77.51-.31.13-.66.19-1.06.19Z"/>
    <path d="M440.35,60.32v-5.95h.67v.92h.05c.12-.3.33-.54.62-.73.3-.19.63-.28,1.01-.28.06,0,.12,0,.19,0,.07,0,.13,0,.17,0v.7s-.08-.01-.16-.02c-.08,0-.16-.02-.25-.02-.31,0-.59.07-.83.2-.24.13-.43.31-.57.54-.14.23-.21.49-.21.79v3.84h-.69Z"/>
    <path d="M444.11,53.35c-.14,0-.26-.05-.36-.15-.1-.1-.15-.21-.15-.35s.05-.25.15-.35c.1-.1.22-.15.36-.15s.26.05.36.15c.1.1.15.21.15.35s-.05.25-.15.35c-.1.1-.22.15-.36.15ZM443.75,60.32v-5.95h.69v5.95h-.69Z"/>
    <path d="M448.19,60.45c-.56,0-1.04-.13-1.44-.39-.41-.26-.72-.62-.94-1.08s-.33-.99-.33-1.59.11-1.13.33-1.6c.22-.47.53-.83.92-1.1.39-.26.84-.4,1.36-.4.32,0,.63.06.93.18.3.12.57.3.81.54s.43.54.57.91c.14.37.21.8.21,1.3v.34h-4.65v-.61h3.95c0-.38-.08-.73-.23-1.03-.15-.31-.37-.55-.64-.73-.27-.18-.59-.27-.94-.27-.38,0-.71.1-1,.3-.29.2-.51.47-.67.8-.16.33-.24.69-.25,1.08v.36c0,.47.08.88.25,1.24s.4.63.7.82c.3.19.66.29,1.07.29.28,0,.53-.04.74-.13.21-.09.39-.21.54-.35.15-.15.26-.31.33-.49l.66.21c-.09.25-.24.48-.44.69-.21.21-.46.38-.77.51-.31.13-.66.19-1.06.19Z"/>
    <path d="M452.32,56.6v3.72h-.69v-5.95h.67v.93h.06c.14-.3.36-.55.65-.73.3-.18.66-.28,1.1-.28.4,0,.75.08,1.06.25.3.17.54.41.71.73.17.32.25.72.25,1.19v3.86h-.69v-3.81c0-.49-.14-.87-.41-1.16s-.64-.43-1.09-.43c-.31,0-.59.07-.83.2-.24.13-.43.33-.58.58s-.21.55-.21.9Z"/>
    <path d="M459.79,60.45c-.53,0-1-.13-1.39-.4-.39-.27-.7-.63-.92-1.09-.22-.46-.33-.99-.33-1.58s.11-1.13.33-1.59c.22-.46.53-.83.92-1.09.39-.26.85-.4,1.37-.4.4,0,.76.08,1.08.23.32.15.59.37.8.65.21.28.34.6.4.97h-.7c-.07-.34-.25-.62-.52-.86-.28-.24-.62-.36-1.05-.36-.38,0-.71.1-1.01.31s-.52.49-.68.86-.25.79-.25,1.27.08.91.24,1.28.39.66.68.87c.29.21.63.31,1.02.31.26,0,.5-.05.72-.15.22-.1.4-.24.55-.42s.25-.4.3-.66h.7c-.05.36-.18.68-.38.96-.2.28-.46.5-.79.66-.32.16-.69.24-1.1.24Z"/>
    <path d="M465.45,60.45c-.56,0-1.04-.13-1.44-.39-.41-.26-.72-.62-.94-1.08s-.33-.99-.33-1.59.11-1.13.33-1.6c.22-.47.53-.83.92-1.1.39-.26.84-.4,1.36-.4.32,0,.63.06.93.18.3.12.57.3.81.54s.43.54.57.91c.14.37.21.8.21,1.3v.34h-4.65v-.61h3.95c0-.38-.08-.73-.23-1.03-.15-.31-.37-.55-.64-.73-.27-.18-.59-.27-.94-.27-.38,0-.71.1-1,.3-.29.2-.51.47-.67.8-.16.33-.24.69-.25,1.08v.36c0,.47.08.88.25,1.24s.4.63.7.82c.3.19.66.29,1.07.29.28,0,.53-.04.74-.13.21-.09.39-.21.54-.35.15-.15.26-.31.33-.49l.66.21c-.09.25-.24.48-.44.69-.21.21-.46.38-.77.51-.31.13-.66.19-1.06.19Z"/>
  </g>
</svg>